<?xml version="1.0" encoding="UTF-8"?>
<svg id="Layer_2" data-name="Layer 2" xmlns="http://www.w3.org/2000/svg" viewBox="0 0 26.03 32">
  <defs>
    <style>
      .cls-1 {
        fill: #cf0;
      }
    </style>
  </defs>
  <g id="Layer_1-2" data-name="Layer 1">
    <g>
      <polygon class="cls-1" points="6.99 32 0 32 19.04 0 26.03 0 6.99 32"/>
      <path class="cls-1" d="M20.15,32c-1.02,0-1.9-.36-2.63-1.09-.73-.73-1.09-1.61-1.09-2.63s.36-1.88,1.09-2.61c.73-.72,1.61-1.09,2.63-1.09s1.86.36,2.61,1.09,1.12,1.59,1.12,2.61c0,.68-.17,1.31-.52,1.87-.35.56-.8,1.01-1.36,1.35-.56.34-1.17.5-1.85.5Z"/>
    </g>
  </g>
</svg>