<?xml version="1.0" encoding="UTF-8"?>
<svg id="Layer_2" data-name="Layer 2" xmlns="http://www.w3.org/2000/svg" viewBox="0 0 454.53 73.24">
  <defs>
    <style>
      .cls-1 {
        fill: #cf0;
      }
    </style>
  </defs>
  <g id="Layer_1-2" data-name="Layer 1">
    <g>
      <path d="M258.65,12.77V0h60.15v12.77h-22.42v60.48h-15.31V12.77h-22.42Z"/>
      <path d="M323.8,73.24V0h15.49v60.47h31.4v12.77h-46.89Z"/>
      <path d="M401.65,73.24h-25.96V0h26.18c7.37,0,13.71,1.46,19.03,4.38,5.32,2.92,9.41,7.11,12.28,12.57,2.87,5.46,4.31,11.99,4.31,19.6s-1.44,14.19-4.31,19.67c-2.87,5.48-6.99,9.69-12.34,12.62-5.35,2.93-11.75,4.4-19.19,4.4ZM391.18,59.97h9.83c4.58,0,8.43-.82,11.57-2.45,3.13-1.63,5.5-4.17,7.08-7.62,1.59-3.45,2.38-7.9,2.38-13.36s-.79-9.83-2.38-13.27c-1.59-3.43-3.94-5.96-7.06-7.58-3.12-1.62-6.97-2.43-11.55-2.43h-9.87v46.71Z"/>
      <path d="M44.61,0h15.27v46.9c0,5.27-1.25,9.87-3.76,13.82-2.5,3.95-6,7.02-10.49,9.22-4.49,2.2-9.72,3.3-15.69,3.3s-11.24-1.1-15.73-3.3c-4.49-2.2-7.98-5.27-10.47-9.22-2.49-3.95-3.74-8.56-3.74-13.82V0h15.27v45.6c0,2.75.61,5.2,1.82,7.34,1.21,2.14,2.92,3.82,5.13,5.04,2.21,1.22,4.78,1.83,7.72,1.83s5.54-.61,7.74-1.83c2.2-1.22,3.9-2.9,5.11-5.04,1.21-2.14,1.82-4.58,1.82-7.34V0Z"/>
      <path d="M126.13,0v73.24h-13.38l-31.86-46.1h-.54v46.1h-15.49V0h13.59l31.61,46.06h.64V0h15.41Z"/>
      <path d="M131.13,12.77V0h60.15v12.77h-22.42v60.48h-15.31V12.77h-22.42Z"/>
      <polygon class="cls-1" points="203.83 73.24 187.83 73.24 231.4 0 247.4 0 203.83 73.24"/>
      <path d="M446.01,73.24c-2.34,0-4.35-.83-6.02-2.5-1.67-1.67-2.5-3.68-2.5-6.02s.83-4.31,2.5-5.97c1.67-1.66,3.68-2.49,6.02-2.49s4.26.83,5.97,2.49,2.56,3.65,2.56,5.97c0,1.56-.4,2.99-1.19,4.28-.79,1.29-1.83,2.32-3.11,3.09-1.28.77-2.69,1.15-4.23,1.15Z"/>
    </g>
  </g>
</svg>